<svg xmlns="http://www.w3.org/2000/svg" viewBox="0 0 2460 620" role="img" aria-label="Flamarsul Distribuidora"><path fill="#ffffff" d="M80,282C69,280 67,279 59,272C50,263 50,263 46,248C42,235 42,235 47,221C50,214 52,211 56,207C62,200 75,191 80,190C88,188 335,189 339,191C344,193 345,198 341,205C340,208 291,258 282,265C279,268 274,271 272,273C269,274 265,276 263,278C255,283 249,283 162,283C118,283 81,283 80,282ZM80,160C74,159 61,149 55,142C45,132 41,113 46,101C47,98 49,93 49,91C51,87 63,73 67,71C74,67 76,67 272,67C476,67 465,67 468,72C469,75 469,75 467,79C465,83 414,135 407,140C405,141 402,144 399,146C397,148 394,150 393,150C392,151 387,153 382,155C377,157 371,159 366,160C358,161 85,161 80,160Z"/><path fill="#e3343f" d="M80,412C69,410 67,409 59,402C50,393 50,393 46,378C42,365 42,365 47,351C50,344 52,341 56,337C62,330 75,321 80,320C88,318 206,319 209,321C214,323 215,328 211,335C210,338 161,388 152,395C149,398 144,401 142,403C139,404 135,406 133,408C127,411 115,413 97,413C88,413 81,413 80,412Z"/><path fill="#ffffff" d="M1404,568C1399,566 1399,563 1399,528C1399,493 1399,492 1404,490C1407,489 1429,489 1433,490C1435,491 1439,494 1443,496C1458,507 1461,530 1452,552C1449,558 1448,559 1443,561C1440,563 1435,565 1432,567C1427,570 1426,570 1417,570C1410,570 1406,569 1404,568ZM1551,568C1550,568 1546,565 1544,563C1538,558 1538,554 1541,552C1545,549 1547,550 1553,554C1560,560 1566,561 1572,555C1578,550 1578,545 1574,542C1568,537 1562,533 1558,532C1552,530 1543,522 1540,517C1537,510 1539,501 1546,494C1552,489 1553,489 1567,489C1580,490 1583,491 1583,498C1582,502 1582,502 1571,502C1556,502 1552,504 1554,511C1555,515 1557,517 1565,519C1570,521 1585,532 1588,536C1590,539 1592,548 1591,553C1590,556 1578,568 1575,569C1570,571 1555,570 1551,568ZM1844,569C1840,567 1840,565 1840,529C1839,486 1838,489 1856,489C1872,489 1875,490 1882,497C1891,505 1892,510 1887,520C1885,524 1885,524 1886,527C1894,539 1894,555 1886,560C1876,567 1874,568 1871,569C1867,570 1847,570 1844,569ZM1941,568C1929,561 1926,554 1929,534C1930,526 1930,518 1930,510C1929,497 1930,494 1933,494C1937,494 1937,496 1937,513C1937,541 1942,557 1951,559C1955,559 1958,558 1962,554C1968,547 1968,547 1969,519C1969,491 1969,490 1975,490C1981,490 1981,491 1981,522C1981,540 1981,551 1980,552C1979,556 1968,567 1963,569C1959,571 1945,570 1941,568ZM2078,569C2071,566 2071,566 2070,530C2070,494 2070,493 2076,490C2080,489 2098,489 2103,490C2105,491 2109,494 2113,496C2119,500 2120,502 2122,507C2123,511 2125,515 2126,516C2128,522 2127,537 2124,546C2120,557 2119,559 2112,562C2109,563 2104,566 2102,567C2096,570 2085,571 2078,569ZM2179,569C2175,567 2162,556 2160,552C2157,542 2156,513 2160,506C2162,502 2174,491 2177,490C2181,488 2200,489 2204,490C2206,491 2209,494 2211,497C2213,500 2215,502 2216,502C2218,502 2221,510 2222,517C2223,528 2223,533 2221,544C2220,552 2220,552 2212,560C2207,565 2203,568 2200,569C2195,570 2184,570 2179,569ZM2022,567C2019,565 2019,563 2019,527C2019,491 2019,490 2025,490C2031,490 2031,491 2031,528C2031,562 2031,566 2027,568C2025,569 2025,569 2022,567ZM2302,568C2297,566 2291,559 2289,553C2286,546 2279,539 2275,539C2272,539 2270,544 2270,552C2270,564 2266,569 2261,565C2258,562 2257,557 2257,525C2257,487 2256,489 2277,489C2293,489 2296,490 2303,498C2313,508 2313,519 2302,529C2299,532 2297,535 2297,536C2297,538 2302,548 2305,554C2311,563 2309,571 2302,568ZM1742,566C1741,565 1739,562 1739,560C1737,556 1730,546 1726,541C1721,536 1713,540 1713,549C1713,564 1706,572 1702,563C1700,560 1700,556 1700,528C1700,494 1700,492 1706,490C1710,489 1733,489 1738,490C1744,492 1750,498 1752,505C1754,514 1752,528 1747,530C1740,534 1740,539 1746,547C1753,556 1754,565 1749,567C1747,569 1744,568 1742,566ZM1492,564C1489,560 1489,496 1492,493C1495,490 1498,490 1501,493C1503,496 1503,496 1503,526C1503,557 1502,562 1499,565C1496,568 1494,567 1492,564ZM1641,565C1638,562 1637,557 1637,531C1637,503 1638,504 1628,502C1616,500 1613,497 1615,493C1617,490 1621,489 1644,489C1669,489 1670,489 1670,495C1670,499 1667,501 1660,502C1650,503 1650,501 1650,533C1650,556 1650,560 1648,563C1646,567 1644,568 1641,565ZM1791,565C1788,562 1787,557 1787,526C1787,496 1787,496 1789,493C1792,490 1795,490 1798,493C1801,496 1801,557 1798,563C1796,567 1794,568 1791,565ZM2334,564C2333,563 2334,560 2335,554C2337,550 2339,543 2340,540C2341,536 2343,530 2345,526C2347,523 2349,517 2350,513C2353,499 2358,490 2364,490C2368,490 2371,492 2372,498C2373,501 2375,505 2376,508C2378,511 2380,517 2381,522C2382,527 2384,534 2386,537C2391,546 2394,561 2391,564C2388,569 2381,565 2379,558C2378,550 2376,547 2371,544C2360,538 2356,540 2351,553C2347,560 2345,562 2343,564C2339,567 2335,567 2334,564ZM2198,556C2199,554 2202,552 2203,550C2209,545 2211,533 2209,520C2205,498 2182,494 2173,514C2168,524 2170,544 2176,550C2178,551 2181,554 2182,556C2186,560 2194,560 2198,556ZM1424,557C1430,555 1438,548 1440,543C1447,527 1439,504 1426,502C1418,500 1413,502 1412,507C1410,511 1411,548 1413,553C1415,557 1419,559 1424,557ZM1871,555C1874,554 1879,548 1879,545C1879,538 1870,532 1860,530C1857,530 1856,530 1853,533C1850,536 1850,536 1850,543C1851,557 1858,561 1871,555ZM2094,557C2100,555 2109,547 2111,542C2113,535 2113,520 2110,514C2105,504 2098,500 2088,502C2080,503 2080,503 2080,528C2080,548 2081,551 2082,553C2085,558 2089,559 2094,557ZM2368,528C2369,525 2369,518 2367,517C2363,512 2358,523 2361,529C2363,532 2366,531 2368,528ZM1735,520C1741,515 1741,505 1734,502C1727,500 1714,503 1712,508C1712,511 1713,517 1715,519C1720,523 1730,524 1735,520ZM2288,521C2297,516 2299,511 2293,505C2289,502 2289,502 2282,502C2272,502 2270,504 2270,511C2270,522 2278,526 2288,521ZM1867,519C1877,515 1877,504 1866,502C1857,500 1850,503 1850,510C1850,518 1858,522 1867,519ZM533,410C529,409 522,401 521,396C520,391 520,378 522,370C522,366 523,361 524,358C524,355 525,349 526,345C527,341 528,331 529,323C530,305 533,288 535,280C537,274 538,262 540,245C540,237 542,221 544,210C548,193 549,184 549,180C549,174 553,146 554,142C555,137 558,120 559,106C561,87 564,82 574,76C578,74 578,74 674,73C726,73 770,73 772,74C776,74 785,82 786,87C790,99 781,117 769,120C767,121 740,121 691,121C616,121 616,121 613,123C612,125 611,127 611,130C611,137 608,159 606,168C602,185 601,198 601,204C602,214 596,213 674,213C731,213 742,213 745,214C750,217 757,222 758,225C760,229 760,242 758,245C755,250 747,259 743,260C741,261 711,261 668,261C596,261 596,261 594,263C592,265 591,267 590,281C589,289 588,302 586,308C583,323 581,337 580,353C576,398 568,411 545,411C540,411 535,410 533,410ZM799,410C791,407 781,398 776,388C771,378 769,370 772,360C772,356 774,350 774,348C774,345 775,339 776,335C777,331 778,321 779,313C780,295 783,278 785,272C786,266 787,260 789,236C791,217 794,203 795,200C796,198 797,189 800,165C801,145 802,143 804,132C807,117 809,105 809,100C809,89 811,85 818,78C824,72 826,71 830,70C844,67 855,70 859,80C863,88 861,120 854,150C854,154 852,164 851,174C850,190 847,208 844,220C844,224 842,234 841,242C839,268 837,285 835,289C834,293 833,300 830,324C830,333 829,342 828,344C826,355 828,365 835,369C842,375 845,387 842,397C840,402 832,408 826,410C821,411 805,411 799,410ZM904,410C900,409 899,409 888,403C878,397 866,384 861,373C859,368 859,354 860,341C861,326 868,307 876,297C881,290 892,281 897,279C899,278 903,276 905,275C916,268 928,267 976,267C1013,267 1014,267 1018,265C1032,258 1029,231 1014,217C1005,208 986,205 968,209C954,212 952,213 939,225C922,240 913,242 901,234C890,226 888,221 890,212C892,203 912,184 924,179C927,178 931,176 933,175C938,171 941,170 958,168C965,166 974,165 976,164C983,163 999,163 1006,165C1010,165 1017,167 1023,168C1052,174 1076,197 1080,223C1082,236 1079,273 1075,280C1074,282 1073,290 1070,314C1069,333 1066,347 1065,350C1064,352 1063,360 1061,379C1060,393 1059,395 1052,403C1046,410 1043,411 1033,411C1021,411 1015,407 1010,395C1007,388 1003,388 994,395C989,399 982,402 968,407C960,410 960,410 934,411C920,411 907,410 904,410ZM1110,410C1103,408 1097,399 1097,392C1096,380 1102,337 1106,320C1106,316 1108,306 1109,296C1110,280 1113,262 1116,249C1117,243 1120,218 1120,211C1120,204 1125,185 1128,178C1133,169 1138,166 1151,166C1164,166 1168,168 1171,177C1172,180 1174,183 1175,184C1176,185 1188,180 1197,174C1201,171 1204,170 1209,169C1213,168 1221,167 1226,165C1239,162 1250,162 1268,167C1281,171 1292,177 1298,182C1310,195 1311,196 1314,196C1316,196 1318,195 1319,193C1323,189 1332,181 1336,179C1339,178 1343,176 1346,174C1350,171 1353,170 1367,167C1389,162 1401,162 1412,165C1416,167 1422,168 1425,169C1444,173 1467,199 1470,222C1472,232 1471,261 1469,270C1468,273 1467,277 1467,280C1467,282 1466,287 1465,290C1463,296 1462,308 1460,324C1460,337 1457,353 1455,360C1454,364 1452,373 1452,380C1450,396 1449,398 1442,404C1436,410 1431,411 1420,411C1411,410 1406,408 1401,400C1399,396 1399,396 1399,382C1400,374 1401,363 1402,357C1403,351 1405,343 1405,340C1407,333 1408,319 1410,306C1411,293 1413,277 1415,270C1419,258 1418,245 1412,233C1406,223 1396,214 1386,212C1379,210 1361,211 1358,213C1356,214 1351,217 1347,219C1337,224 1336,225 1330,234C1322,244 1321,246 1320,254C1318,269 1316,279 1314,288C1313,292 1311,304 1311,312C1309,332 1307,347 1305,350C1304,352 1303,360 1301,379C1300,393 1299,395 1292,403C1285,410 1282,411 1271,411C1255,411 1248,405 1248,390C1248,377 1253,334 1255,330C1256,328 1257,320 1260,296C1261,277 1264,263 1265,260C1268,255 1267,246 1261,235C1257,224 1257,224 1249,219C1238,212 1234,211 1219,211C1207,212 1208,211 1193,220C1185,224 1175,236 1172,244C1169,252 1161,292 1161,300C1161,307 1158,329 1156,338C1153,352 1151,365 1151,376C1150,381 1149,387 1148,390C1147,396 1139,406 1134,409C1130,411 1114,412 1110,410ZM1525,409C1517,408 1505,401 1497,394C1493,390 1490,387 1487,380C1478,362 1478,348 1489,314C1492,301 1509,282 1519,279C1521,278 1526,276 1530,274C1540,268 1546,268 1596,267C1636,267 1640,266 1642,265C1650,259 1651,238 1644,227C1637,216 1632,212 1623,210C1601,203 1577,209 1562,224C1550,236 1536,242 1528,237C1513,230 1508,218 1514,208C1521,197 1538,181 1546,178C1549,178 1554,175 1558,173C1562,171 1566,170 1574,169C1580,168 1587,166 1590,165C1598,163 1622,162 1630,165C1634,166 1640,167 1644,168C1655,170 1657,170 1667,176C1678,183 1687,191 1691,198C1693,202 1696,207 1698,210C1700,214 1701,215 1701,234C1701,254 1700,272 1696,288C1693,302 1691,315 1691,320C1691,327 1688,349 1686,358C1684,367 1682,382 1680,391C1680,395 1679,397 1674,402C1668,410 1666,411 1655,411C1643,411 1641,410 1635,400C1627,389 1626,388 1618,394C1612,399 1610,400 1604,402C1601,403 1596,404 1594,406C1585,410 1578,411 1554,411C1537,411 1529,410 1525,409ZM1732,410C1722,406 1719,401 1719,385C1719,372 1721,354 1724,340C1727,327 1729,312 1730,297C1731,290 1732,279 1733,272C1737,257 1739,242 1740,227C1742,208 1748,179 1752,173C1753,171 1761,168 1769,166C1773,165 1775,165 1781,167C1789,169 1791,171 1792,178C1794,189 1795,189 1816,175C1821,171 1825,170 1829,169C1856,164 1857,164 1869,168C1878,171 1880,173 1881,182C1882,194 1881,196 1874,203C1868,210 1866,210 1852,212C1846,213 1839,215 1836,216C1833,217 1827,219 1824,221C1820,222 1815,224 1813,226C1811,228 1808,231 1807,232C1803,234 1793,250 1791,255C1787,273 1782,303 1780,323C1779,330 1778,340 1777,345C1773,363 1771,378 1771,383C1771,391 1769,395 1763,402C1758,407 1755,409 1753,410C1748,411 1735,411 1732,410ZM1922,410C1919,409 1914,407 1911,406C1908,404 1903,402 1900,401C1890,397 1871,379 1868,368C1865,358 1868,350 1875,347C1884,343 1891,346 1900,358C1904,364 1915,374 1921,377C1926,380 1944,383 1956,383C1967,383 1991,379 1996,377C2009,370 2015,364 2022,353C2031,338 2031,333 2022,319C2018,314 2016,312 2013,311C2011,310 2007,308 2003,307C1997,304 1992,303 1968,301C1946,299 1939,298 1930,295C1925,294 1919,292 1917,292C1907,290 1893,278 1889,268C1886,257 1887,222 1892,213C1899,198 1914,185 1933,176C1948,169 1954,168 1982,167C2000,167 2006,167 2014,169C2034,172 2053,186 2063,204C2068,213 2069,216 2067,222C2064,228 2059,231 2052,232C2045,232 2043,231 2038,224C2032,214 2019,202 2011,199C2007,198 2002,196 1999,195C1984,189 1951,196 1935,208C1925,216 1923,219 1919,228C1916,238 1916,242 1919,250C1922,256 1928,262 1937,267C1938,268 1952,270 1976,273C1981,274 1987,275 1990,275C1994,276 2002,278 2009,278C2031,281 2045,290 2054,308C2060,321 2061,328 2058,341C2053,363 2044,379 2031,388C2029,390 2025,393 2022,395C2020,397 2014,400 2010,401C2006,403 2000,405 1998,406C1991,410 1980,411 1953,411C1938,411 1926,410 1922,410ZM2146,409C2133,406 2115,394 2109,385C2107,383 2105,379 2103,378C2102,377 2099,371 2097,364C2092,349 2092,332 2095,312C2097,305 2098,296 2098,293C2100,272 2101,263 2104,252C2107,236 2109,222 2110,206C2111,190 2115,177 2119,173C2123,168 2135,167 2140,171C2142,174 2142,174 2142,182C2142,192 2139,228 2138,232C2138,234 2137,238 2136,242C2136,245 2135,251 2134,255C2133,259 2132,269 2131,277C2130,296 2127,312 2125,320C2122,329 2123,335 2126,344C2128,348 2130,353 2131,356C2132,359 2134,362 2140,368C2150,377 2150,378 2159,380C2177,385 2206,382 2216,375C2219,374 2222,371 2225,369C2237,361 2246,348 2250,334C2252,329 2254,323 2255,320C2256,316 2257,308 2258,302C2260,275 2262,259 2264,251C2267,238 2269,224 2270,207C2271,189 2274,178 2279,173C2283,168 2295,167 2300,171C2302,174 2302,174 2302,183C2302,195 2300,220 2298,229C2298,233 2297,238 2297,240C2297,242 2296,247 2295,250C2293,257 2293,258 2290,284C2289,303 2286,317 2285,320C2284,322 2283,331 2281,352C2278,384 2273,404 2267,408C2263,411 2254,411 2251,408C2249,406 2247,400 2247,397C2247,397 2246,395 2246,393C2244,390 2237,390 2232,395C2230,397 2227,399 2226,399C2212,406 2204,409 2198,410C2188,411 2153,411 2146,409ZM2354,410C2352,409 2349,408 2347,408C2342,405 2332,395 2330,391C2327,382 2329,343 2334,322C2337,308 2339,295 2339,290C2339,283 2342,261 2344,252C2347,238 2349,224 2350,208C2351,200 2352,188 2354,182C2357,167 2359,152 2360,136C2361,129 2362,121 2362,119C2363,117 2364,107 2366,98C2368,90 2369,81 2370,79C2374,68 2391,68 2397,78C2400,83 2399,91 2394,110C2394,114 2392,124 2391,134C2391,143 2389,154 2388,159C2388,163 2387,168 2387,170C2387,172 2386,177 2385,180C2383,186 2382,198 2380,214C2380,227 2377,243 2375,250C2374,254 2373,262 2372,268C2370,295 2368,311 2366,319C2363,334 2361,346 2360,360C2360,377 2360,377 2370,384C2379,390 2380,391 2380,397C2380,408 2369,413 2354,410ZM964,368C969,367 974,365 977,363C980,362 984,360 986,359C988,358 994,355 998,351C1006,344 1007,343 1011,333C1017,320 1018,314 1015,310C1013,307 1013,307 979,307C936,307 930,308 922,319C911,334 911,349 921,358C932,368 944,371 964,368ZM1586,368C1590,367 1595,365 1599,363C1602,362 1606,360 1608,359C1610,358 1614,356 1617,354C1619,352 1622,349 1624,348C1626,347 1636,328 1638,322C1639,317 1639,312 1636,309C1634,307 1632,307 1600,307C1566,307 1566,307 1558,310C1547,313 1542,318 1539,328C1534,345 1539,359 1553,366C1559,369 1575,370 1586,368Z"/></svg>